<?xml version="1.0" encoding="UTF-8"?>
<svg width="164px" height="23px" viewBox="0 0 164 23" version="1.1" xmlns="http://www.w3.org/2000/svg" xmlns:xlink="http://www.w3.org/1999/xlink">
    <!-- Generator: Sketch 40.3 (33839) - http://www.bohemiancoding.com/sketch -->
    <title>LOGOFFF Copy 2</title>
    <desc>Created with Sketch.</desc>
    <defs>
        <polygon id="path-1" points="16.9696347 16.2720543 16.9696347 0.240298936 0.117261684 0.240298936 0.117261684 16.2720543 16.9696347 16.2720543"></polygon>
    </defs>
    <g id="Page-1" stroke="none" stroke-width="1" fill="none" fill-rule="evenodd">
        <g id="iPhone-7---watch-video" transform="translate(-114.000000, -617.000000)">
            <g id="LOGOFFF" transform="translate(114.000000, 617.000000)">
                <g id="LOGOF">
                    <g id="Page-1">
                        <path d="M50.9899294,18.3904426 L52.4802199,18.3904426 L50.6688631,13.0007617 L48.8806378,18.3904426 L50.9899294,18.3904426 Z M42.1854336,24.3076766 C42.1854336,24.0479106 42.2273788,23.7918468 42.3115778,23.5394851 C42.3954683,23.2871234 42.4451241,23.1458255 42.4605452,23.115283 L47.5507262,10.2025702 C47.6885904,9.88171915 47.8906062,9.63305957 48.1580073,9.45720851 C48.4257167,9.28166596 48.743082,9.18602766 49.1101031,9.17060213 L50.9899294,9.17060213 L52.411442,9.17060213 C52.8089967,9.18602766 53.1374652,9.29308085 53.3977725,9.4917617 C53.6574631,9.69044255 53.8329546,9.92737872 53.9251725,10.2025702 L59.0609999,23.115283 C59.0758041,23.1921021 59.1217588,23.348517 59.1985557,23.5854532 C59.2744273,23.8226979 59.3129799,24.0479106 59.3129799,24.262017 C59.3129799,24.8124 59.0070262,25.1335596 58.3957357,25.2251872 L55.2547757,25.2251872 C54.9337094,25.2251872 54.6622988,25.1681128 54.4408525,25.0533468 C54.2187894,24.9385809 54.0772241,24.7744532 54.0167736,24.5600383 L53.3055546,22.2665702 L48.1925504,22.2665702 L47.4819483,24.5600383 C47.4208809,24.7744532 47.2830167,24.9385809 47.0689725,25.0533468 C46.8549283,25.1681128 46.5878357,25.2251872 46.2664609,25.2251872 L43.0795462,25.2251872 C42.4833683,25.1335596 42.1854336,24.8278255 42.1854336,24.3076766 L42.1854336,24.3076766 Z" id="Fill-1" fill="#E15958"></path>
                        <path d="M70.73156,20.2942309 C71.2361368,20.2942309 71.7061705,20.1489223 72.1413526,19.8583053 C72.5771516,19.5679968 72.9284432,19.166933 73.1961526,18.6541883 C73.4638621,18.1423691 73.5977168,17.5802628 73.5977168,16.9684862 C73.5977168,16.3721351 73.4675632,15.8217521 73.2078726,15.3170287 C72.9475653,14.8126138 72.6002832,14.4112415 72.1647926,14.1132202 C71.7289937,13.8148904 71.25896,13.6658798 70.7543832,13.6658798 L68.6222684,13.6658798 C68.5152463,13.6658798 68.4270379,13.7044436 68.35826,13.7803372 C68.2897905,13.8571564 68.2552474,13.9564968 68.2552474,14.078667 L68.2552474,19.8811351 C68.2552474,20.0039223 68.2897905,20.1029543 68.35826,20.1794649 C68.4270379,20.256284 68.5152463,20.2942309 68.6222684,20.2942309 L70.73156,20.2942309 Z M63.4858242,24.2160181 L63.4858242,10.1797096 C63.4858242,9.90451809 63.5854442,9.66758191 63.7843758,9.46859255 C63.9826905,9.27022021 64.2198663,9.17057128 64.4949779,9.17057128 L70.6856053,9.17057128 C72.1376516,9.17057128 73.5021063,9.53399681 74.7783526,10.2599223 C76.0545989,10.9864649 77.0714632,11.9650606 77.8277116,13.1957096 C78.5845768,14.426667 78.9630095,15.760667 78.9630095,17.1977096 C78.9630095,18.6353691 78.5805674,19.9693691 77.8166084,21.2000181 C77.0520326,22.4309755 76.0280747,23.4095713 74.7441179,24.1358053 C73.4601611,24.8623479 72.0916968,25.2251564 70.6399589,25.2251564 L64.4949779,25.2251564 C64.2198663,25.2251564 63.9826905,25.1261245 63.7843758,24.9271351 C63.5854442,24.7287628 63.4858242,24.4912096 63.4858242,24.2160181 L63.4858242,24.2160181 Z" id="Fill-3" fill="#E15958"></path>
                        <path d="M82.4027061,17.1519883 C82.4027061,15.6384351 82.7885408,14.2393394 83.5602103,12.9550096 C84.3321882,11.6703713 85.3792777,10.6498181 86.7014787,9.89304149 C88.0236798,9.13626489 89.456604,8.75772234 91.0008682,8.75772234 C92.5599366,8.75772234 94.0193851,9.15539255 95.3798303,9.95042447 C95.6555587,10.1034457 95.7928061,10.3252649 95.7928061,10.6152649 C95.7928061,10.8142543 95.7086072,11.0132436 95.5405177,11.2119245 L93.2936703,13.6886479 C93.1406935,13.8419777 92.9648935,13.9181798 92.7665787,13.9181798 C92.6132935,13.9181798 92.4754293,13.8876372 92.3536029,13.8265521 C91.9406272,13.6429883 91.4823135,13.5510521 90.9777366,13.5510521 C90.3204914,13.5510521 89.7125935,13.708084 89.1549682,14.0215309 C88.5970345,14.3349777 88.1575345,14.7591798 87.8367766,15.2944457 C87.5157103,15.8297117 87.3550229,16.41835 87.3550229,17.0603606 C87.3550229,17.6872543 87.5194114,18.2724989 87.8481882,18.8148606 C88.1766566,19.3578394 88.6161566,19.7894457 89.1666882,20.1109138 C89.7169114,20.4317649 90.3204914,20.5924989 90.9777366,20.5924989 C91.4514714,20.5924989 91.9483377,20.4854457 92.4680272,20.2713394 C92.5904703,20.2102543 92.7203156,20.1794032 92.8581798,20.1794032 C93.0564945,20.1794032 93.2248924,20.2485096 93.3621398,20.3857968 L95.8844072,22.8628287 C96.0679177,23.0463926 96.1595187,23.2527862 96.1595187,23.4820096 C96.1595187,23.726967 96.0450945,23.9333606 95.8156293,24.1011904 C94.2716735,25.0800947 92.6669587,25.5693926 91.0008682,25.5693926 C89.456604,25.5693926 88.0236798,25.19085 86.7014787,24.4340734 C85.3792777,23.6772968 84.3321882,22.652733 83.5602103,21.3606904 C82.7885408,20.0689564 82.4027061,18.66585 82.4027061,17.1519883" id="Fill-5" fill="#E15958"></path>
                        <path d="M117.16216,10.1337415 L117.16216,24.2619862 C117.16216,24.5371777 117.070559,24.7667096 116.887048,24.9499649 C116.703538,25.1335287 116.481783,25.2251564 116.222092,25.2251564 L112.897313,25.2251564 C112.652735,25.2251564 112.430981,25.1261245 112.232666,24.9271351 C112.033426,24.7287628 111.934114,24.5069436 111.934114,24.2619862 L111.934114,18.9411032 L106.04173,18.9411032 L106.04173,24.2619862 C106.04173,24.5069436 105.94612,24.7287628 105.754899,24.9271351 C105.563678,25.1261245 105.338222,25.2251564 105.078531,25.2251564 L101.754061,25.2251564 C101.509483,25.2251564 101.28742,25.1261245 101.089105,24.9271351 C100.890482,24.7287628 100.790862,24.5069436 100.790862,24.2619862 L100.790862,10.1337415 C100.790862,9.87397553 100.882463,9.65215638 101.066282,9.46859255 C101.249792,9.28533723 101.478949,9.19340106 101.754061,9.19340106 L105.078531,9.19340106 C105.353643,9.19340106 105.583108,9.28533723 105.766619,9.46859255 C105.949821,9.65215638 106.04173,9.87397553 106.04173,10.1337415 L106.04173,14.9961777 L111.934114,14.9961777 L111.934114,10.1337415 C111.934114,9.87397553 112.026024,9.65215638 112.209226,9.46859255 C112.393045,9.28533723 112.622202,9.19340106 112.897313,9.19340106 L116.222092,9.19340106 C116.512317,9.19340106 116.741473,9.27762447 116.909871,9.44576277 C117.077961,9.61420957 117.16216,9.84374149 117.16216,10.1337415" id="Fill-7" fill="#E15958"></path>
                        <path d="M130.162662,18.3904426 L131.652953,18.3904426 L129.841596,13.0007617 L128.053371,18.3904426 L130.162662,18.3904426 Z M121.358166,24.3076766 C121.358166,24.0479106 121.400112,23.7918468 121.484311,23.5394851 C121.568201,23.2871234 121.617857,23.1458255 121.633278,23.115283 L126.723459,10.2025702 C126.861323,9.88171915 127.063339,9.63305957 127.33074,9.45720851 C127.59845,9.28166596 127.915815,9.18602766 128.282836,9.17060213 L130.162662,9.17060213 L131.584175,9.17060213 C131.98173,9.18602766 132.310198,9.29308085 132.570505,9.4917617 C132.830196,9.69044255 133.005687,9.92737872 133.097905,10.2025702 L138.233733,23.115283 C138.248537,23.1921021 138.294492,23.348517 138.371289,23.5854532 C138.44716,23.8226979 138.485713,24.0479106 138.485713,24.262017 C138.485713,24.8124 138.179759,25.1335596 137.568469,25.2251872 L134.427509,25.2251872 C134.106442,25.2251872 133.835032,25.1681128 133.613585,25.0533468 C133.391522,24.9385809 133.249957,24.7744532 133.189506,24.5600383 L132.478287,22.2665702 L127.365283,22.2665702 L126.654681,24.5600383 C126.593614,24.7744532 126.45575,24.9385809 126.241705,25.0533468 C126.027661,25.1681128 125.760569,25.2251872 125.439194,25.2251872 L122.252279,25.2251872 C121.656101,25.1335596 121.358166,24.8278255 121.358166,24.3076766 L121.358166,24.3076766 Z" id="Fill-9" fill="#E15958"></path>
                        <path d="M148.62012,16.6703415 C149.323012,16.6703415 149.969462,16.5441606 150.55793,16.2921074 C151.146089,16.0397457 151.440631,15.4548096 151.440631,14.5376074 C151.440631,13.8952883 151.245709,13.4059904 150.855556,13.0694053 C150.465712,12.7334372 149.904694,12.5649904 149.170343,12.5649904 L147.290825,12.5649904 L147.290825,12.7942138 L147.290825,16.6703415 L147.450896,16.6703415 L147.519674,16.6703415 L148.62012,16.6703415 Z M152.0365,23.8490755 C151.868102,22.8093947 151.520512,22.0868628 150.99342,21.6817883 C150.465712,21.2767138 149.812476,21.035767 149.033404,20.9592564 C148.925457,20.9441394 148.79592,20.9364266 148.643252,20.9364266 C148.489966,20.9364266 148.36043,20.9518521 148.253407,20.9820862 L148.229967,21.0052245 L148.229967,23.9410117 C148.229967,24.2313202 148.203443,24.4648628 148.150395,24.6404053 C148.096421,24.8165649 147.951155,24.9615649 147.714904,25.0763309 C147.47742,25.1907883 147.107315,25.2481713 146.602738,25.2481713 L144.470006,25.2481713 C143.996272,25.2632883 143.622157,25.1759798 143.346429,24.9843947 C143.071934,24.7934266 142.93407,24.52965 142.93407,24.1933734 L142.956584,18.0006394 L142.956584,10.0191606 C142.956584,9.78993723 143.071934,9.58724574 143.300782,9.41139468 C143.529939,9.23585213 143.805359,9.14761809 144.126734,9.14761809 L149.331339,9.14761809 C151.624141,9.13250106 153.320149,9.51844787 154.42152,10.305767 C155.521966,11.0933947 156.117527,12.3280543 156.209745,14.0100543 C156.22455,14.162767 156.228867,14.2815436 156.221465,14.3654585 C156.213138,14.4496819 156.209745,14.5221819 156.209745,14.583267 L156.209745,15.0648521 C156.133257,15.9518202 155.900091,16.655533 155.510246,17.1750649 C155.120094,17.6949053 154.604722,18.1764904 153.96259,18.6198202 L153.985721,18.64265 C154.734259,19.0097777 155.330129,19.5373309 155.773946,20.2253096 C156.217147,20.9135968 156.5194,21.6324266 156.679471,22.3811819 C156.840466,23.1305543 156.905235,23.803416 156.874393,24.3994585 C156.874393,24.6598415 156.7831,24.8662351 156.599898,25.0186394 C156.416387,25.1719691 156.155772,25.2481713 155.819593,25.2481713 L153.022214,25.2481713 C152.624967,25.2481713 152.369286,25.1488309 152.254862,24.95015 C152.14013,24.7514691 152.078754,24.5410649 152.071352,24.3192457 C152.063024,24.0977351 152.051613,23.9410117 152.0365,23.8490755 L152.0365,23.8490755 Z" id="Fill-11" fill="#E15958"></path>
                        <path d="M161.987459,24.2161106 L161.987459,10.2257702 C161.987459,9.9354617 162.07906,9.68649362 162.26257,9.48040851 C162.446081,9.27370638 162.69035,9.17066383 162.995995,9.17066383 L166.137572,9.17066383 C166.412375,9.17066383 166.64585,9.27370638 166.837071,9.48040851 C167.027984,9.68649362 167.123286,9.9354617 167.123286,10.2257702 L167.123286,24.2161106 C167.123286,24.5372702 167.027984,24.793334 166.837071,24.9846106 C166.64585,25.1758872 166.412375,25.271217 166.137572,25.271217 L162.995995,25.271217 C162.69035,25.271217 162.446081,25.1758872 162.26257,24.9846106 C162.07906,24.793334 161.987459,24.5372702 161.987459,24.2161106" id="Fill-13" fill="#E15958"></path>
                        <path d="M184.962082,9.2393383 C185.221773,9.2393383 185.450929,9.3349766 185.649861,9.52625319 C185.848484,9.71752979 185.947796,9.9353383 185.947796,10.1796787 L185.947796,12.8402745 C185.947796,13.1003489 185.848484,13.3295723 185.649861,13.5282532 C185.450929,13.7272426 185.221773,13.826583 184.962082,13.826583 L181.33906,13.826583 L181.33906,24.1931574 C181.33906,24.4837745 181.25116,24.7287319 181.075668,24.9271043 C180.89956,25.1260936 180.681815,25.2251255 180.422124,25.2251255 L177.372457,25.2251255 C177.112458,25.2251255 176.894404,25.1301043 176.718913,24.9385191 C176.543113,24.7475511 176.455521,24.5069128 176.455521,24.2159872 L176.616208,13.826583 L172.94754,13.826583 C172.657007,13.826583 172.415822,13.7272426 172.224909,13.5282532 C172.033688,13.3295723 171.938386,13.1003489 171.938386,12.8402745 L171.938386,10.1796787 C171.938386,9.91991277 172.033688,9.69809362 172.224909,9.51452979 C172.415822,9.33096596 172.657007,9.2393383 172.94754,9.2393383 L184.962082,9.2393383 Z" id="Fill-15" fill="#E15958"></path>
                        <g id="Group-19" transform="translate(189.728421, 8.953195)">
                            <mask id="mask-2" fill="white">
                                <use xlink:href="#path-1"></use>
                            </mask>
                            <g id="Clip-18"></g>
                            <path d="M5.82644379,15.262916 L5.87239853,8.1070117 L0.277640632,1.36420319 C0.170618526,1.24203298 0.117261684,1.10443723 0.117261684,0.951415957 C0.117261684,0.767852128 0.189740632,0.607118085 0.335006947,0.46952234 C0.480273263,0.331926596 0.659774316,0.255724468 0.874126947,0.240298936 L5.48286274,0.263437234 C5.60499747,0.263437234 5.73114168,0.286267021 5.86098695,0.331926596 C5.99083221,0.377894681 6.09415326,0.438979787 6.17033326,0.515490426 L8.60099958,3.68050106 L10.9397564,0.515490426 C11.0005154,0.438979787 11.1001354,0.377894681 11.2376912,0.331926596 C11.3755554,0.286267021 11.5050922,0.263437234 11.6272269,0.263437234 L16.2362712,0.240298936 C16.4500069,0.255724468 16.6258069,0.331926596 16.7636712,0.46952234 C16.9012269,0.607118085 16.9696964,0.767852128 16.9696964,0.951415957 C16.9696964,1.08870319 16.9240501,1.22629894 16.8324491,1.36420319 L11.3524238,8.08418191 L11.2839543,15.262916 C11.2839543,15.5381074 11.1806333,15.7753521 10.9742996,15.9737245 C10.7676575,16.1730223 10.5344912,16.2720543 10.2748006,16.2720543 L6.83559747,16.2720543 C6.57529011,16.2720543 6.34274063,16.1730223 6.13609853,15.9737245 C5.92976484,15.7753521 5.82644379,15.5381074 5.82644379,15.262916" id="Fill-17" fill="#E15958" mask="url(#mask-2)"></path>
                        </g>
                        <path d="M20.0341093,17.7844968 C20.0341093,18.0720287 19.798784,18.3074223 19.5113356,18.3074223 C19.2238872,18.3074223 18.9885619,18.0720287 18.9885619,17.7844968 L18.9885619,13.9447734 C18.9885619,13.656933 19.2238872,13.4215394 19.5113356,13.4215394 C19.798784,13.4215394 20.0341093,13.656933 20.0341093,13.9447734 L20.0341093,17.7844968 Z M18.0657661,19.6355606 C18.0657661,19.9230926 17.8304408,20.1584862 17.5429924,20.1584862 C17.2552356,20.1584862 17.0199103,19.9230926 17.0199103,19.6355606 L17.0199103,13.0022734 C17.0199103,12.714433 17.2552356,12.4793479 17.5429924,12.4793479 C17.8304408,12.4793479 18.0657661,12.714433 18.0657661,13.0022734 L18.0657661,19.6355606 Z M16.0767587,21.3533479 C16.0767587,21.6411883 15.8414335,21.8765819 15.5539851,21.8765819 C15.2665366,21.8765819 15.0312114,21.6411883 15.0312114,21.3533479 L15.0312114,13.497433 C15.0312114,13.2095926 15.2665366,12.9745074 15.5539851,12.9745074 C15.8414335,12.9745074 16.0767587,13.2095926 16.0767587,13.497433 L16.0767587,21.3533479 Z M14.0880598,22.648784 C14.0880598,22.9366245 13.8527345,23.1717096 13.5652861,23.1717096 C13.2775293,23.1717096 13.042204,22.9366245 13.042204,22.648784 L13.042204,14.2418691 C13.042204,13.9543372 13.2775293,13.7189436 13.5652861,13.7189436 C13.8527345,13.7189436 14.0880598,13.9543372 14.0880598,14.2418691 L14.0880598,22.648784 Z M12.1194082,21.3533479 C12.1194082,21.6411883 11.8843914,21.8765819 11.5966345,21.8765819 C11.3091861,21.8765819 11.0738608,21.6411883 11.0738608,21.3533479 L11.0738608,13.497433 C11.0738608,13.2095926 11.3091861,12.9745074 11.5966345,12.9745074 C11.8843914,12.9745074 12.1194082,13.2095926 12.1194082,13.497433 L12.1194082,21.3533479 Z M10.1510651,19.6355606 C10.1510651,19.9230926 9.91573979,20.1584862 9.62829137,20.1584862 C9.34053453,20.1584862 9.10520926,19.9230926 9.10520926,19.6355606 L9.10520926,13.0022734 C9.10520926,12.714433 9.34053453,12.4793479 9.62829137,12.4793479 C9.91573979,12.4793479 10.1510651,12.714433 10.1510651,13.0022734 L10.1510651,19.6355606 Z M8.02419347,17.7844968 C8.02419347,18.0720287 7.78886821,18.3074223 7.50141979,18.3074223 C7.21397137,18.3074223 6.97864611,18.0720287 6.97864611,17.7844968 L6.97864611,13.9447734 C6.97864611,13.656933 7.21397137,13.4215394 7.50141979,13.4215394 C7.78886821,13.4215394 8.02419347,13.656933 8.02419347,13.9447734 L8.02419347,17.7844968 Z M17.7271198,4.5719117 L9.20853032,4.5719117 C8.45783347,4.5719117 7.73150189,4.68143298 7.04310611,4.88196489 C7.04310611,4.88165638 7.04187242,4.88011383 7.04187242,4.88011383 L4.70249874,0.387273404 C4.70249874,0.387273404 4.310804,-0.28651383 3.50243242,0.14355 C3.50243242,0.14355 3.03825874,0.427379787 3.19308611,0.995039362 C3.19308611,0.995039362 3.27882716,1.33039043 3.44229032,1.56269894 C3.58354716,1.76384787 5.10128716,4.71814574 5.50840295,5.51194362 C5.02048084,5.77726277 4.56463453,6.0944117 4.14579874,6.45351809 L2.02355347,3.58406064 C2.02355347,3.58406064 1.54179979,2.9247734 0.802206105,3.42949681 C0.802206105,3.42949681 0.320760842,3.81636915 0.561637684,4.35842234 C0.561637684,4.35842234 0.666192421,4.56728404 1.06035453,5.08095426 C1.41411347,5.54186915 2.60523558,7.18252872 2.97749979,7.69558191 C1.99363663,9.00150745 1.40825347,10.6230394 1.40825347,12.3744543 L1.40825347,20.8952096 C1.40825347,25.1865926 4.91839347,28.6977521 9.20853032,28.6977521 L17.7271198,28.6977521 C22.0172566,28.6977521 25.5273966,25.1865926 25.5273966,20.8952096 L25.5273966,12.3744543 C25.5273966,8.08307128 22.0172566,4.5719117 17.7271198,4.5719117 L17.7271198,4.5719117 Z" id="Fill-27" fill="#E15958"></path>
                        <path d="M33.0231077,17.9372096 L29.0410835,15.2405181 C29.0410835,15.2405181 28.0831277,14.7308585 28.0242193,15.6582415 L28.0393319,21.0685926 C28.0393319,21.0685926 28.0242193,22.2097734 29.2622214,21.4671883 L33.0231077,18.920433 C33.0231077,18.920433 33.5776487,18.4299011 33.0231077,17.9372096" id="Fill-29" fill="#E15958"></path>
                    </g>
                </g>
            </g>
        </g>
    </g>
</svg>