<?xml version="1.0" encoding="UTF-8"?>
<svg width="20px" height="18px" viewBox="0 0 20 18" version="1.1" xmlns="http://www.w3.org/2000/svg" xmlns:xlink="http://www.w3.org/1999/xlink">
    <!-- Generator: Sketch 40.3 (33839) - http://www.bohemiancoding.com/sketch -->
    <title>Group</title>
    <desc>Created with Sketch.</desc>
    <defs>
        <polygon id="path-1" points="1.42271429 0.07 0.228428571 0.07 0.228428571 11.9277143 1.42271429 11.9277143 1.42271429 0.07"></polygon>
        <polygon id="path-3" points="9.68037654e-21 0.674714286 9.68037654e-21 6.84471429 1.19421429 6.84471429 1.19421429 0.674714286 0 0.674714286"></polygon>
        <polygon id="path-5" points="1.52835714 0.07 0.334071429 0.07 0.334071429 11.9277143 1.52835714 11.9277143"></polygon>
    </defs>
    <g id="Page-1" stroke="none" stroke-width="1" fill="none" fill-rule="evenodd">
        <g id="iPhone-7-Copy-4" transform="translate(-34.000000, -465.000000)">
            <g id="Group" transform="translate(34.000000, 465.000000)">
                <g id="Page-1">
                    <path d="M9.79107143,2.71642857 C9.4625,2.71642857 9.19392857,2.985 9.19392857,3.31357143 L9.19392857,17.19 C9.19392857,17.5185714 9.4625,17.7871429 9.79107143,17.7871429 C10.1196429,17.7871429 10.3882143,17.5185714 10.3882143,17.19 L10.3882143,3.31357143 C10.3882143,2.985 10.1196429,2.71642857 9.79107143,2.71642857" id="Fill-1" fill="#393939"></path>
                    <path d="M6.73685714,1.47292857 C6.40828571,1.47292857 6.13971429,1.7415 6.13971429,2.07007143 L6.13971429,14.8029286 C6.13971429,15.1315 6.40828571,15.4000714 6.73685714,15.4000714 C7.06542857,15.4000714 7.334,15.1315 7.334,14.8029286 L7.334,2.07007143 C7.334,1.7415 7.06542857,1.47292857 6.73685714,1.47292857" id="Fill-3" fill="#393939"></path>
                    <g id="Group-7" transform="translate(2.857143, 0.644429)">
                        <mask id="mask-2" fill="white">
                            <use xlink:href="#path-1"></use>
                        </mask>
                        <g id="Clip-6"></g>
                        <path d="M0.825571429,0.0698571429 C0.497714286,0.0698571429 0.228428571,0.338428571 0.228428571,0.667 L0.228428571,11.3305714 C0.228428571,11.6591429 0.497714286,11.9277143 0.825571429,11.9277143 C1.15414286,11.9277143 1.42271429,11.6591429 1.42271429,11.3305714 L1.42271429,0.667 C1.42271429,0.338428571 1.15414286,0.0698571429 0.825571429,0.0698571429" id="Fill-5" fill="#393939" mask="url(#mask-2)"></path>
                    </g>
                    <g id="Group-10" transform="translate(0.000000, 2.073000)">
                        <mask id="mask-4" fill="white">
                            <use xlink:href="#path-3"></use>
                        </mask>
                        <g id="Clip-9"></g>
                        <path d="M0.597071429,0.674714286 C0.2685,0.674714286 -7.14285715e-05,0.943285714 -7.14285715e-05,1.27185714 L-7.14285715e-05,6.24685714 C-7.14285715e-05,6.57542857 0.2685,6.84471429 0.597071429,6.84471429 C0.925642857,6.84471429 1.19421429,6.57542857 1.19421429,6.24685714 L1.19421429,1.27185714 C1.19421429,0.943285714 0.925642857,0.674714286 0.597071429,0.674714286" id="Fill-8" fill="#393939" mask="url(#mask-4)"></path>
                    </g>
                    <path d="M12.877,1.47292857 C12.5484286,1.47292857 12.2798571,1.7415 12.2798571,2.07007143 L12.2798571,14.8029286 C12.2798571,15.1315 12.5484286,15.4000714 12.877,15.4000714 C13.2055714,15.4000714 13.4741429,15.1315 13.4741429,14.8029286 L13.4741429,2.07007143 C13.4741429,1.7415 13.2055714,1.47292857 12.877,1.47292857" id="Fill-11" fill="#393939"></path>
                    <g id="Group-15" transform="translate(15.000000, 0.644429)">
                        <mask id="mask-6" fill="white">
                            <use xlink:href="#path-5"></use>
                        </mask>
                        <g id="Clip-14"></g>
                        <path d="M0.931214286,0.0698571429 C0.602642857,0.0698571429 0.334071429,0.338428571 0.334071429,0.667 L0.334071429,11.3305714 C0.334071429,11.6591429 0.602642857,11.9277143 0.931214286,11.9277143 C1.25907143,11.9277143 1.52835714,11.6591429 1.52835714,11.3305714 L1.52835714,0.667 C1.52835714,0.338428571 1.25907143,0.0698571429 0.931214286,0.0698571429" id="Fill-13" fill="#393939" mask="url(#mask-6)"></path>
                    </g>
                    <path d="M19.0167857,2.74771429 C18.6889286,2.74771429 18.4196429,3.01628571 18.4196429,3.34485714 L18.4196429,8.31985714 C18.4196429,8.64842857 18.6889286,8.91771429 19.0167857,8.91771429 C19.3453571,8.91771429 19.6139286,8.64842857 19.6139286,8.31985714 L19.6139286,3.34485714 C19.6139286,3.01628571 19.3453571,2.74771429 19.0167857,2.74771429" id="Fill-16" fill="#393939"></path>
                </g>
            </g>
        </g>
    </g>
</svg>