<?xml version="1.0" encoding="UTF-8"?>
<svg width="35px" height="34px" viewBox="0 0 35 34" version="1.1" xmlns="http://www.w3.org/2000/svg" xmlns:xlink="http://www.w3.org/1999/xlink">
    <!-- Generator: Sketch 40.3 (33839) - http://www.bohemiancoding.com/sketch -->
    <title>Group</title>
    <desc>Created with Sketch.</desc>
    <defs></defs>
    <g id="Page-1" stroke="none" stroke-width="1" fill="none" fill-rule="evenodd">
        <g id="iPhone-7---get-coin" transform="translate(-223.000000, -208.000000)" fill="#E15958">
            <g id="Group" transform="translate(223.000000, 208.000000)">
                <g id="Page-1">
                    <path d="M18.4509514,15.865939 L15.9005184,15.865939 C14.8411415,15.865939 13.9787879,15.0266534 13.9787879,13.9948222 C13.9787879,12.9634357 14.8411415,12.1237054 15.9005184,12.1237054 L20.4019112,12.1237054 C20.8843762,12.1237054 21.2789708,11.7395035 21.2789708,11.2698344 C21.2789708,10.8004321 20.8843762,10.4162302 20.4019112,10.4162302 L18.0563568,10.4162302 L18.0563568,8.67300287 C18.0563568,8.20324486 17.6616709,7.81939867 17.1792972,7.81939867 C16.697289,7.81939867 16.302603,8.20324486 16.302603,8.67300287 L16.302603,10.4162302 L15.9005184,10.4162302 C13.8767596,10.4162302 12.2251254,12.0240086 12.2251254,13.9948222 C12.2251254,15.9657247 13.8767596,17.5738588 15.9005184,17.5738588 L18.4509514,17.5738588 C19.5106937,17.5738588 20.372682,18.4131444 20.372682,19.4449756 C20.372682,20.4763621 19.5106937,21.3160924 18.4509514,21.3160924 L13.8692696,21.3160924 C13.386896,21.3160924 12.99221,21.7002943 12.99221,22.1699634 C12.99221,22.6393657 13.386896,23.0235676 13.8692696,23.0235676 L16.295113,23.0235676 L16.295113,24.8022802 C16.295113,25.2719493 16.689799,25.6561512 17.1721726,25.6561512 C17.6545463,25.6561512 18.0492322,25.2719493 18.0492322,24.8022802 L18.0492322,23.0235676 L18.4947953,23.0235676 C20.4968148,22.9951082 22.1192198,21.4015595 22.1192198,19.4449756 C22.1192198,17.4667803 20.4750756,15.865939 18.4509514,15.865939" id="Fill-1"></path>
                    <path d="M17.1721726,31.7323226 C8.67386534,31.7323226 1.75366246,24.9943812 1.75366246,16.7198989 C1.75366246,8.44541659 8.67386534,1.70747521 17.1721726,1.70747521 C25.6704799,1.70747521 32.5906828,8.44541659 32.5906828,16.7198989 C32.5906828,24.9943812 25.6704799,31.7323226 17.1721726,31.7323226 M29.317009,4.89492827 C26.0725645,1.73602355 21.760979,0 17.1721726,0 C12.5833662,0 8.27178075,1.73602355 5.02733622,4.89492827 C1.78298303,8.05392194 0,12.2519506 0,16.7198989 C0,21.1878472 1.78298303,25.3858759 5.02733622,28.5448695 C8.27178075,31.7037742 12.5833662,33.4397978 17.1721726,33.4397978 C21.760979,33.4397978 26.0725645,31.7037742 29.317009,28.5448695 C32.5613622,25.3858759 34.3443452,21.1878472 34.3443452,16.7198989 C34.3443452,12.2519506 32.5613622,8.05392194 29.317009,4.89492827" id="Fill-3"></path>
                </g>
            </g>
        </g>
    </g>
</svg>