<?xml version="1.0" encoding="UTF-8"?>
<svg width="17px" height="17px" viewBox="0 0 17 17" version="1.1" xmlns="http://www.w3.org/2000/svg" xmlns:xlink="http://www.w3.org/1999/xlink">
    <!-- Generator: Sketch 40.3 (33839) - http://www.bohemiancoding.com/sketch -->
    <title>Group</title>
    <desc>Created with Sketch.</desc>
    <defs></defs>
    <g id="Page-1" stroke="none" stroke-width="1" fill="none" fill-rule="evenodd" opacity="0.20988806">
        <g id="iPhone-7---watch-video" transform="translate(-17.000000, -17.000000)" fill="#FFFFFF">
            <g id="Group" transform="translate(17.000000, 17.000000)">
                <g id="Page-1">
                    <path d="M9.13297872,8.06586702 L7.87054787,8.06586702 C7.34617021,8.06586702 6.91931649,7.63919415 6.91931649,7.11463564 C6.91931649,6.59030319 7.34617021,6.16340426 7.87054787,6.16340426 L10.0986782,6.16340426 C10.337492,6.16340426 10.5328112,5.96808511 10.5328112,5.72931649 C10.5328112,5.49068351 10.337492,5.29536436 10.0986782,5.29536436 L8.93765957,5.29536436 L8.93765957,4.40914894 C8.93765957,4.17033511 8.74229521,3.97519681 8.5035266,3.97519681 C8.26493883,3.97519681 8.06957447,4.17033511 8.06957447,4.40914894 L8.06957447,5.29536436 L7.87054787,5.29536436 C6.86881383,5.29536436 6.0512766,6.11272074 6.0512766,7.11463564 C6.0512766,8.11659574 6.86881383,8.93413298 7.87054787,8.93413298 L9.13297872,8.93413298 C9.65753723,8.93413298 10.0842101,9.36080585 10.0842101,9.88536436 C10.0842101,10.4096968 9.65753723,10.8365957 9.13297872,10.8365957 L6.86510638,10.8365957 C6.62633777,10.8365957 6.4309734,11.0319149 6.4309734,11.2706835 C6.4309734,11.5093165 6.62633777,11.7046356 6.86510638,11.7046356 L8.06586702,11.7046356 L8.06586702,12.608891 C8.06586702,12.8476596 8.26123138,13.0429787 8.5,13.0429787 C8.73876862,13.0429787 8.93413298,12.8476596 8.93413298,12.608891 L8.93413298,11.7046356 L9.15468085,11.7046356 C10.1456543,11.6901676 10.9487234,10.8800452 10.9487234,9.88536436 C10.9487234,8.87969681 10.1348936,8.06586702 9.13297872,8.06586702" id="Fill-1"></path>
                    <path d="M8.5,16.1319601 C4.29344947,16.1319601 0.868039894,12.7065505 0.868039894,8.5 C0.868039894,4.29344947 4.29344947,0.868039894 8.5,0.868039894 C12.7065505,0.868039894 16.1319601,4.29344947 16.1319601,8.5 C16.1319601,12.7065505 12.7065505,16.1319601 8.5,16.1319601 M14.5115346,2.48846543 C12.9055771,0.882553191 10.7713989,0 8.5,0 C6.22860106,0 4.09442287,0.882553191 2.48846543,2.48846543 C0.882553191,4.09442287 0,6.22860106 0,8.5 C0,10.7713989 0.882553191,12.9055771 2.48846543,14.5115346 C4.09442287,16.1174468 6.22860106,17 8.5,17 C10.7713989,17 12.9055771,16.1174468 14.5115346,14.5115346 C16.1174468,12.9055771 17,10.7713989 17,8.5 C17,6.22860106 16.1174468,4.09442287 14.5115346,2.48846543" id="Fill-3"></path>
                </g>
            </g>
        </g>
    </g>
</svg>