<?xml version="1.0" encoding="UTF-8"?>
<svg width="8px" height="15px" viewBox="0 0 8 15" version="1.1" xmlns="http://www.w3.org/2000/svg" xmlns:xlink="http://www.w3.org/1999/xlink">
    <!-- Generator: Sketch 40.3 (33839) - http://www.bohemiancoding.com/sketch -->
    <title>Page 1</title>
    <desc>Created with Sketch.</desc>
    <defs></defs>
    <g id="Page-1" stroke="none" stroke-width="1" fill="none" fill-rule="evenodd">
        <g id="iPhone-7-Copy-4" transform="translate(-339.000000, -2237.000000)" fill="#C3C3C3">
            <path d="M340.863058,2244.89135 L340.863058,2251.57754 C340.863058,2251.70964 340.970179,2251.81652 341.102034,2251.81652 L343.855815,2251.81652 C343.987909,2251.81652 344.094791,2251.70964 344.094791,2251.57754 L344.094791,2244.92283 L345.961792,2244.92283 C346.083371,2244.92283 346.185414,2244.83161 346.199394,2244.71116 L346.482939,2242.24953 C346.490646,2242.18184 346.469198,2242.11397 346.423912,2242.06307 C346.378626,2242.0124 346.313505,2241.98325 346.245576,2241.98325 L344.094791,2241.98325 L344.094791,2240.44018 C344.094791,2239.97507 344.345477,2239.73914 344.839262,2239.73914 L346.245576,2239.73914 C346.377431,2239.73914 346.484552,2239.63226 346.484552,2239.50017 L346.484552,2237.24083 C346.484552,2237.10873 346.377431,2237.00185 346.245576,2237.00185 L344.307659,2237.00185 C344.293858,2237.00119 344.263568,2237 344.218939,2237 C343.8827,2237 342.713928,2237.06602 341.790703,2237.91528 C340.767826,2238.85649 340.909957,2239.9835 340.944011,2240.1788 L340.944011,2241.98325 L339.238976,2241.98325 C339.106882,2241.98325 339,2242.09013 339,2242.22223 L339,2244.65237 C339,2244.78423 339.106882,2244.89135 339.238976,2244.89135 L340.863058,2244.89135 Z" id="Page-1"></path>
        </g>
    </g>
</svg>