<?xml version="1.0" encoding="UTF-8"?>
<svg width="28px" height="28px" viewBox="0 0 28 28" version="1.1" xmlns="http://www.w3.org/2000/svg" xmlns:xlink="http://www.w3.org/1999/xlink">
    <!-- Generator: Sketch 40.3 (33839) - http://www.bohemiancoding.com/sketch -->
    <title>search icon</title>
    <desc>Created with Sketch.</desc>
    <defs>
        <filter x="-50%" y="-50%" width="200%" height="200%" filterUnits="objectBoundingBox" id="filter-1">
            <feOffset dx="0" dy="2" in="SourceAlpha" result="shadowOffsetOuter1"></feOffset>
            <feGaussianBlur stdDeviation="2" in="shadowOffsetOuter1" result="shadowBlurOuter1"></feGaussianBlur>
            <feColorMatrix values="0 0 0 0 0.6   0 0 0 0 0.6   0 0 0 0 0.6  0 0 0 0.5 0" type="matrix" in="shadowBlurOuter1" result="shadowMatrixOuter1"></feColorMatrix>
            <feMerge>
                <feMergeNode in="shadowMatrixOuter1"></feMergeNode>
                <feMergeNode in="SourceGraphic"></feMergeNode>
            </feMerge>
        </filter>
    </defs>
    <g id="Page-1" stroke="none" stroke-width="1" fill="none" fill-rule="evenodd">
        <g id="iPhone-7-Copy-4" transform="translate(-120.000000, -94.000000)" fill="#4A4A4A">
            <g id="Header---iPhone7" filter="url(#filter-1)">
                <g id="search-icon" transform="translate(124.000000, 96.000000)">
                    <path d="M8.42852041,15.1795816 C4.70204082,15.1795816 1.67352041,12.1510102 1.67352041,8.4285102 C1.67352041,4.7060102 4.70204082,1.6735102 8.42852041,1.6735102 C12.1510204,1.6735102 15.1837755,4.7060102 15.1837755,8.4285102 C15.1837755,12.1510102 12.1510204,15.1795816 8.42852041,15.1795816 M19.755051,18.5795816 L14.9469898,13.7715204 C16.1387755,12.3184082 16.8570408,10.4571837 16.8570408,8.4285102 C16.8570408,3.7755 13.0815306,-1.02040817e-05 8.42852041,-1.02040817e-05 C3.77153061,-1.02040817e-05 0,3.7755 0,8.4285102 C0,13.0815204 3.77153061,16.8570306 8.42852041,16.8570306 C10.4571939,16.8570306 12.3142347,16.1427449 13.7673469,14.9509592 L18.5754082,19.7550408 C18.9020408,20.0817245 19.4286224,20.0817245 19.755051,19.7550408 C20.0817347,19.4325918 20.0817347,18.9020306 19.755051,18.5795816" id="Fill-1"></path>
                </g>
            </g>
        </g>
    </g>
</svg>