<?xml version="1.0" encoding="UTF-8"?>
<svg width="28px" height="28px" viewBox="0 0 28 28" version="1.1" xmlns="http://www.w3.org/2000/svg" xmlns:xlink="http://www.w3.org/1999/xlink">
    <!-- Generator: Sketch 40.3 (33839) - http://www.bohemiancoding.com/sketch -->
    <title>Page 1 Copy</title>
    <desc>Created with Sketch.</desc>
    <defs></defs>
    <g id="Page-1" stroke="none" stroke-width="1" fill="none" fill-rule="evenodd">
        <g id="iPhone-7---about-us-登入狀態" transform="translate(-317.000000, -91.000000)" fill="#4A4A4A">
            <path d="M323.071446,114.929036 C323.144305,113.894024 323.713053,110.391865 327.572187,108.427527 C328.537943,109.178365 329.715242,109.604826 331.001544,109.604826 C332.288075,109.604826 333.501575,109.141993 334.467331,108.391154 C338.290036,110.355436 338.895213,113.784793 339.004502,114.892607 C336.825017,116.642028 334.040641,117.713412 331.041291,117.713412 C328.002251,117.716786 325.250873,116.681774 323.071446,114.929036 M326.71572,104.036017 C326.71572,101.678102 328.643858,99.750193 331.001544,99.750193 C333.359517,99.750193 335.287425,101.678102 335.287425,104.036017 C335.287425,106.393761 333.359517,108.321898 331.001544,108.321898 C328.643858,108.321898 326.71572,106.393761 326.71572,104.036017 M318.286302,105.001544 C318.286302,98.0007721 324.000772,92.2863019 331.001544,92.2863019 C338.002316,92.2863019 343.716786,98.0007721 343.716786,105.001544 C343.716786,108.430901 342.360999,111.536109 340.145371,113.824539 C339.788167,112.144603 338.716725,109.287425 335.429712,107.432318 C336.180322,106.502992 336.606783,105.289264 336.606783,104.002962 C336.606783,100.930809 334.106752,98.4308357 331.0346,98.4308357 C327.962504,98.4308357 325.462474,100.930809 325.462474,104.002962 C325.462474,105.289264 325.925307,106.466563 326.639773,107.432318 C323.322964,109.287425 322.251351,112.144603 321.930576,113.824539 C319.678518,111.572539 318.286302,108.430901 318.286302,105.001544 M345,105.001544 C345,97.286592 338.713408,91 330.998227,91 C323.283218,91 317,97.286592 317,105.001544 C317,109.250996 318.927909,113.073758 321.927431,115.643216 C321.963632,115.679646 322.000061,115.716076 322.069546,115.749131 C324.496946,117.786271 327.605243,119 331.0346,119 C334.391154,119 337.499679,117.786271 339.92708,115.821933 C340.069195,115.785561 340.178427,115.679646 340.247912,115.570643 C343.144664,112.964698 345,109.214566 345,105.001544" id="Page-1-Copy"></path>
        </g>
    </g>
</svg>