<?xml version="1.0" encoding="UTF-8"?>
<svg width="22px" height="22px" viewBox="0 0 22 22" version="1.1" xmlns="http://www.w3.org/2000/svg" xmlns:xlink="http://www.w3.org/1999/xlink">
    <!-- Generator: Sketch 40.3 (33839) - http://www.bohemiancoding.com/sketch -->
    <title>Page 1</title>
    <desc>Created with Sketch.</desc>
    <defs></defs>
    <g id="Page-1" stroke="none" stroke-width="1" fill="none" fill-rule="evenodd">
        <g id="iPhone-7---watch-video" transform="translate(-339.000000, -15.000000)" fill="#484848">
            <path d="M351.489525,26.000819 L360.691664,16.7986798 C361.102992,16.3873521 361.102992,15.7211419 360.691664,15.3098141 C360.278578,14.8967286 359.607095,14.8967286 359.194009,15.3098141 L350.000659,24.5101955 L340.79852,15.3098141 C340.387192,14.8967286 339.720982,14.8967286 339.309654,15.3098141 C338.896569,15.7211419 338.896569,16.3873521 339.309654,16.8057111 L348.510036,26.000819 L339.309654,35.1941691 C338.896569,35.6072546 338.896569,36.2787383 339.309654,36.6918238 C339.515318,36.8974877 339.782505,37.0011985 340.058482,37.0011985 C340.325669,37.0011985 340.592856,36.8974877 340.79852,36.6918238 L350.000659,27.4896847 L359.194009,36.6918238 C359.406704,36.8974877 359.675649,37.0011985 359.942837,37.0011985 C360.210024,37.0011985 360.486,36.8974877 360.691664,36.6918238 C361.102992,36.2787383 361.102992,35.6072546 360.691664,35.1941691 L351.489525,26.000819 Z" id="Page-1"></path>
        </g>
    </g>
</svg>